<svg xmlns="http://www.w3.org/2000/svg" version="1.1" xmlns:xlink="http://www.w3.org/1999/xlink" xmlns:svgjs="http://svgjs.dev/svgjs" width="100%" height="100%" viewBox="0 0 1000 600"><rect width="1000" height="600" x="0" y="0" fill="#f1f0e8"/><g><circle r="166.66666666666666" cx="438.75236002604163" cy="460.9746452076088" fill="#ADC4C" transform="matrix(0.45941391376612406,0,0,0.4594139137661241,0,88.22181121003841)"/><path d="M420.62642381970704 535.9746475403356L420.62642381970704 458.2172950583244Q420.62642381970704 450.14840965705565 419.9588541642064 442.13757379104777Q419.3203092763362 434.1267379250399 417.7239470566607 426.8415212497936Q416.1566096046157 419.5563045745473 413.6314548207654 413.25792999873676Q411.1353248045456 406.98858019055666 407.47820408310713 402.34461736968257Q403.79205859403834 397.7006545488084 398.8578480968596 395.0594006944363Q393.8946128320503 392.41814684006414 387.56721348860935 392.41814684006414L387.56721348860935 392.41814684006414Q378.48246122027433 392.41814684006414 371.2843188479194 397.67162978117796Q364.115201243195 402.92511272229183 359.0068421402334 411.7486420819527Q353.8984830372719 420.57217144161353 351.1991796476388 432.0369546556465Q348.4998762580057 443.53076263731 348.4998762580057 455.9823879507788L348.4998762580057 455.9823879507788Q348.4998762580057 469.74012780761836 351.48942732394346 480.91466334534675Q354.5080031575116 492.0891988830751 359.09391644312484 500.8837034751055Q363.679829728738 509.6491832995054 369.10746127563465 516.1797560163596Q374.5060680549009 522.7103287332138 379.2661299462968 527.0059943425224Q383.99716707006235 531.2726351842007 387.422089650457 533.5365670593767Q390.8470122308517 535.7714741669224 391.3404332805695 535.9746475403356L391.3404332805695 535.9746475403356L352.27309604996594 535.9746475403356Q350.32843661872494 535.0458549761609 346.90351403833023 531.8821553044404Q343.4785914579356 528.7184556327197 339.35707445440977 523.7261956002801Q335.235557450884 518.7339355678405 330.99794137683637 512.0582390128338Q326.7603253027887 505.35351769019684 323.2773531871331 497.45878089471086Q319.823405839108 489.53501933159436 317.61752349919277 480.50831659852025Q315.440665926908 471.48161386544615 315.440665926908 461.7873414768714L315.440665926908 461.7873414768714Q315.440665926908 455.8662888802569 316.51458232923517 447.91350254950993Q317.55947396393185 439.960716218763 320.4329259593477 431.54353360592864Q323.2773531871331 423.12635099309426 328.24058845194236 414.9413665213036Q333.1747989491211 406.78540681714344 340.8373376035634 400.37093317081104Q348.4998762580057 393.9274347568482 359.2100155136467 389.95104159147473Q369.92015476928765 385.9746484261013 384.40351381688885 385.9746484261013L384.40351381688885 385.9746484261013Q394.0107119025722 385.9746484261013 401.8183743951668 387.77418401919Q409.6260368877614 389.54469484464823 415.92441146357197 392.6503449811078Q422.251810807013 395.78501988519787 427.1569965365613 399.9645864239846Q432.0621822661096 404.1441529627713 435.8354020580698 408.9332396217977L435.8354020580698 408.9332396217977Q439.60862185003003 404.1441529627713 444.804055255883 399.9645864239846Q450.0285134293664 395.78501988519787 456.76225951963386 392.6503449811078Q463.4960056099013 389.54469484464823 472.00026252562714 387.77418401919Q480.5335442089833 385.9746484261013 491.040510091211 385.9746484261013L491.040510091211 385.9746484261013Q505.11752239198574 385.9746484261013 515.8857111828877 389.13834809782173Q526.6538999737895 392.30204776954224 534.5486367692755 397.67162978117796Q542.472398332392 403.0121870251832 547.7258812735058 410.00715602412487Q552.9793642146197 417.0021250230665 556.2011134216011 424.6066141422479Q559.3938378609521 432.2111032614293 560.7289771719534 440.01876575402395Q562.0641164829547 447.7974034789881 562.0641164829547 454.64724863977744L562.0641164829547 454.64724863977744Q562.0641164829547 467.5052207000727 558.1747976204726 478.07023611756136Q554.314503525621 488.63525153505 548.1902775555933 497.05243414788436Q542.0660515855654 505.4696167607187 534.4615624663841 512.000189477573Q526.8570733472028 518.5307621944271 519.3977080661737 523.2617993181927Q511.96736755277504 528.0218612095887 505.46581960355127 531.1275113460483Q498.993296421958 534.2331614825079 495.01690325658444 535.9746475403356L495.01690325658444 535.9746475403356L486.0482500587713 535.9746475403356Q486.5416711084892 535.7714741669224 489.908544153623 533.4785175241159Q493.2754171987567 531.1855608813091 498.09352862541357 526.8028209691092Q502.88261528444 522.3910562892788 508.2812220637062 515.7734092695332Q513.6798288429724 509.12673748215707 518.2947668962161 500.1580842843439Q522.8806801818292 491.18943108653076 525.928280783028 479.81172217538915Q529.0049061518571 468.43401326424754 529.0049061518571 454.4440752663642L529.0049061518571 454.4440752663642Q529.0049061518571 440.0477905216544 525.6380331067232 428.52495777236044Q522.2711600615895 417.0021250230665 516.6113303736493 408.99128915705865Q510.9515006857089 400.98045329105076 503.49213540467974 396.6847876817422Q496.0327701236507 392.41814684006414 487.87681041949054 392.41814684006414L487.87681041949054 392.41814684006414Q481.34623770263624 392.41814684006414 476.23787859967473 395.0594006944363Q471.1295194967132 397.7006545488084 467.2692254018616 402.34461736968257Q463.3799065393795 406.98858019055666 460.6806031497464 413.25792999873676Q457.9812997601133 419.5563045745473 456.2398137022855 426.8415212497936Q454.49832764445773 434.1267379250399 453.74368368606565 442.13757379104777Q452.9890397276736 450.14840965705565 452.9890397276736 458.2172950583244L452.9890397276736 458.2172950583244L452.9890397276736 535.9746475403356L420.62642381970704 535.9746475403356Z " fill="#ffffff" transform="matrix(0.45941391376612406,0,0,0.4594139137661241,0,88.22181121003841)"/><path d="M688.7523952618303 435.9753469347133L688.7523952618303 432.54521981259467L729.4917512353003 432.54521981259467L729.4917512353003 442.91475795869167Q731.6289842883127 440.1442706677497 734.3203147995134 437.7431816822667Q737.0116453107141 435.3157071035366 740.2570732801032 433.5214867627361Q743.5025012494923 431.7008808286886 747.4339546433052 430.671842692053Q751.3654080371181 429.6691901486645 756.0092724486017 429.6691901486645L756.0092724486017 429.6691901486645Q761.4974758439914 429.6691901486645 766.2204970352162 431.1467833705002Q770.943518226441 432.6243765923359 774.7430436540186 435.2629359170425Q778.5689546748431 437.9278808349962 781.5241411185145 441.6218638895854Q784.505713155433 445.34223253742175 786.4318614624689 449.8013977961759L786.4318614624689 449.8013977961759Q788.5690945154812 445.79078762262185 791.4978953659055 442.1495757545267Q794.4266962163299 438.48197829318457 798.2262216439074 435.6851054089955Q802.025747071485 432.9146181180536 806.8015394492039 431.2787113367355Q811.5773318269228 429.6691901486645 817.6196326805009 429.6691901486645L817.6196326805009 429.6691901486645Q826.0630225195621 429.6691901486645 832.5802640515874 432.9937748977948Q839.1238911768598 436.3447452401722 843.583056435614 442.1495757545267Q848.0422216943681 447.92802067563423 850.3113827136158 455.5798427172834Q852.5805437328635 463.23166475893254 852.5805437328635 471.85975375072314L852.5805437328635 471.85975375072314L852.5805437328635 519.723219900901Q852.5805437328635 521.1216563429955 853.0818700045577 522.7047919378194Q853.609581869499 524.2879275326434 854.9816327183464 525.6335927882437Q856.3800691604409 526.9792580438441 858.807543739171 527.9027538074915Q861.2086327246541 528.8262495711388 865.1137005252199 528.8262495711388L865.1137005252199 528.8262495711388L865.1137005252199 532.2563766932574L812.1314292851112 532.2563766932574L812.1314292851112 528.8262495711388Q815.7462555599593 528.8262495711388 818.1737301386893 528.1402241467151Q820.5748191241723 527.4278131290444 822.026026752761 526.2140758396793Q823.4508487881026 525.0267241435613 824.057717432785 523.3908173622431Q824.6645860774676 521.7812961741722 824.6645860774676 519.9079190536304L824.6645860774676 519.9079190536304L824.6645860774676 466.1076944228627Q824.6645860774676 458.98358424615486 823.5563911610908 454.04947830895355Q822.421810651467 449.1417579649993 820.4956623444311 446.0810291483396Q818.5431284441482 443.02030033167995 815.9309547126887 441.67463507607954Q813.3451665744763 440.3289698204792 810.3635945375578 440.3289698204792L810.3635945375578 440.3289698204792Q806.5640691099802 440.3289698204792 803.0811708013675 442.3606605005033Q799.6246580860019 444.4187367737744 796.9333275748012 448.8251308460345Q794.2419970636004 453.2315249182945 792.6060902822824 460.03900797603757Q790.9965690942113 466.8464910337806 790.9965690942113 476.4244613824656L790.9965690942113 476.4244613824656L790.9965690942113 519.1691224427126Q790.9965690942113 520.5675588848071 791.4451241794114 522.2298512593723Q791.9200648578586 523.9185292271845 793.2129589269648 525.3433512625261Q794.5058529960711 526.7945588911147 796.9597131680482 527.7972114345032Q799.4399589332725 528.8262495711388 803.5033402933207 528.8262495711388L803.5033402933207 528.8262495711388L803.5033402933207 532.2563766932574L750.5474546464591 532.2563766932574L750.5474546464591 528.8262495711388Q754.162280921307 528.8262495711388 756.5633699067901 528.1402241467151Q758.9908444855201 527.4278131290444 760.4156665208617 526.2140758396793Q761.8668741494504 525.0267241435613 762.4737427941329 523.3908173622431Q763.0542258455683 521.7812961741722 763.0542258455683 519.9079190536304L763.0542258455683 519.9079190536304L763.0542258455683 466.1076944228627Q763.0542258455683 458.98358424615486 761.9460309291916 454.04947830895355Q760.8378360128148 449.1417579649993 758.938073299026 446.0810291483396Q757.0383105852372 443.02030033167995 754.4261368537777 441.67463507607954Q751.8403487155653 440.3289698204792 748.8851622718938 440.3289698204792L748.8851622718938 440.3289698204792Q745.1647936240576 440.3289698204792 741.6818953154448 442.3342749072562Q738.1989970068321 444.3131944007862 735.5604376821254 448.5348893203167Q732.9218783574189 452.7565842398473 731.2859715761008 459.3529825516138Q729.6764503880297 465.9229952701333 729.6764503880297 475.1051817201123L729.6764503880297 475.1051817201123L729.6764503880297 520.8578004105248Q729.6764503880297 522.2298512593723 730.2833190327123 523.6282877014667Q730.8901876773948 525.0267241435613 732.3150097127364 526.1876902464321Q733.766217341325 527.3486563493032 736.1145351403138 528.0874529602208Q738.4892385325498 528.8262495711388 741.9985224344096 528.8262495711388L741.9985224344096 528.8262495711388L741.9985224344096 532.2563766932574L688.7523952618303 532.2563766932574L688.7523952618303 528.8262495711388Q692.6574630623961 528.8262495711388 695.1113232343732 528.0346817737268Q697.5651834063503 527.2431139763148 698.9636198484449 525.8974487207145Q700.3620562905394 524.5517834651141 700.8633825622336 522.8367199040547Q701.391094427175 521.1216563429955 701.391094427175 519.1691224427126L701.391094427175 519.1691224427126L701.391094427175 445.60608846989237Q701.391094427175 444.23403762104493 700.9161537487278 442.5453596532327Q700.4412130702806 440.88306727866757 699.0955478146802 439.45824524332596Q697.7498825590799 438.0070376147374 695.2960223871027 436.9779994781018Q692.8421622151255 435.9753469347133 688.7523952618303 435.9753469347133L688.7523952618303 435.9753469347133ZM922.7134505835651 432.54521981259467L922.7134505835651 435.9753469347133Q918.8083827829994 435.9753469347133 916.4072937975163 436.76691473212526Q913.9798192187862 437.55848252953723 912.6077683699388 438.9041477851376Q911.2093319278442 440.2234274474909 910.70800565615 441.9648766017973Q910.1802937912087 443.67994016285655 910.1802937912087 445.60608846989237L910.1802937912087 445.60608846989237L910.1802937912087 500.54089361028394Q910.1802937912087 507.77054615998003 912.4230692172093 512.7838088769226Q914.6394590499629 517.7970715938652 918.1751285450697 520.6994868510424Q921.6844124469295 523.6282877014667 926.0116497394483 524.5517834651141Q930.3125014387201 525.4752792287613 934.4814251717565 524.4726266853729L934.4814251717565 524.4726266853729Q940.4181836523464 523.0741902432783 944.9828912840889 519.5121351549244Q949.5212133225842 515.9236944733234 952.634713325738 510.8312749766397Q955.7218277356446 505.73885547995593 957.3577345169629 499.4590842871542Q958.967255705034 493.2056986875996 958.967255705034 486.4246012231036L958.967255705034 486.4246012231036L958.967255705034 445.60608846989237Q958.967255705034 444.23403762104493 958.5714718063278 442.5453596532327Q958.1493023143748 440.88306727866757 956.8036370587745 439.45824524332596Q955.4579718031741 438.0070376147374 953.0041116311969 436.9779994781018Q950.5502514592198 435.9753469347133 946.4604845059246 435.9753469347133L946.4604845059246 435.9753469347133L946.4604845059246 432.54521981259467L999.6010693055156 432.54521981259467L999.6010693055156 435.9753469347133Q995.8015438779381 435.9753469347133 993.3476837059609 436.76691473212526Q990.8938235339838 437.55848252953723 989.4953870918893 438.9041477851376Q988.0969506497947 440.2234274474909 987.5956243781005 441.9648766017973Q987.0942981064063 443.67994016285655 987.0942981064063 445.60608846989237L987.0942981064063 445.60608846989237L987.0942981064063 519.1691224427126Q987.0942981064063 520.5675588848071 987.5428531916064 522.2298512593723Q988.0177938700535 523.9185292271845 989.3106879391598 525.3433512625261Q990.603582008266 526.7945588911147 993.0574421802432 527.7972114345032Q995.5376879454675 528.8262495711388 999.6010693055156 528.8262495711388L999.6010693055156 528.8262495711388L999.6010693055156 532.2563766932574L958.967255705034 532.2563766932574L958.967255705034 513.4170631148522Q957.0411073979981 517.0318893897002 954.3497768867974 520.4884021050659Q951.6584463755966 523.9185292271845 947.9380777277602 526.7945588911147Q944.2177090799239 529.6705885550449 939.4419167022049 531.8342072013043Q934.666124324486 534.0242114408109 928.7293658438962 535.1324063571876L928.7293658438962 535.1324063571876Q920.8664590562705 536.530842799282 914.4547598972334 535.6073470356348Q908.0430607381963 534.6574656787404 903.0034124280068 532.0716775405278Q897.93737852457 529.4858894023155 894.2433954699808 525.4488936355143Q890.5230268221445 521.4118978687131 888.0691666501673 516.4777919315118Q885.6153064781902 511.57007158755755 884.4015691888252 506.0027114124266Q883.1878318994601 500.43535123729566 883.1878318994601 494.8679910621647L883.1878318994601 494.8679910621647L883.1878318994601 445.05199101170405Q883.1878318994601 443.67994016285655 882.6865056277659 442.0968045680326Q882.1851793560716 440.51366897320867 880.7867429139772 439.16800371760826Q879.3883064718826 437.8223384620079 876.9344462999054 436.8988426983606Q874.4805861279283 435.9753469347133 870.6810607003508 435.9753469347133L870.6810607003508 435.9753469347133L870.6810607003508 432.54521981259467L922.7134505835651 432.54521981259467ZM1062.9528786917213 528.8262495711388L1062.9528786917213 532.2563766932574L1009.7067515191419 532.2563766932574L1009.7067515191419 528.8262495711388Q1013.6118193197076 528.8262495711388 1016.0392938984378 528.0346817737268Q1018.4403828839208 527.2431139763148 1019.8388193260153 525.8974487207145Q1021.2108701748626 524.5517834651141 1021.738582039804 522.8367199040547Q1022.2399083114983 521.1216563429955 1022.2399083114983 519.1691224427126L1022.2399083114983 519.1691224427126L1022.2399083114983 416.7666350508492Q1022.2399083114983 415.36819860875465 1021.738582039804 413.8114486071778Q1021.2108701748626 412.2283130123538 1019.8388193260153 410.88264775675344Q1018.4403828839208 409.5369825011531 1016.0392938984378 408.61348673750575Q1013.6118193197076 407.68999097385847 1009.7067515191419 407.68999097385847L1009.7067515191419 407.68999097385847L1009.7067515191419 404.23347825849277L1050.3405651196235 404.23347825849277L1050.3405651196235 449.2473003379875Q1052.2139422401654 445.9754867753513 1054.799730378378 442.8883723654446Q1057.4119041098375 439.7748723622908 1060.868416825203 437.16269863083124Q1064.3513151338157 434.57691049261877 1068.7577092060758 432.6243765923359Q1073.1641032783357 430.671842692053 1078.7314634534669 429.6691901486645L1078.7314634534669 429.6691901486645Q1086.5152134613513 428.27075370657 1092.6366710946704 429.1942494702173Q1098.75812872799 430.11774523386464 1103.4019931394735 432.72991896532415Q1108.0458575509572 435.3157071035366 1111.2912855203463 439.35270287033774Q1114.5367134897353 443.38969863713885 1116.5684041697596 448.29741898109313Q1118.6264804430307 453.2315249182945 1119.549976206678 458.79888509342544Q1120.4734719703251 464.3662452685564 1120.4734719703251 469.90721985044024L1120.4734719703251 469.90721985044024L1120.4734719703251 519.1691224427126Q1120.4734719703251 520.5675588848071 1120.9484126487723 522.2298512593723Q1121.3969677339726 523.9185292271845 1122.7162473963258 525.3433512625261Q1124.009141465432 526.7945588911147 1126.4630016374092 527.7972114345032Q1128.9168618093863 528.8262495711388 1133.0066287626817 528.8262495711388L1133.0066287626817 528.8262495711388L1133.0066287626817 532.2563766932574L1080.9478532862204 532.2563766932574L1080.9478532862204 528.8262495711388Q1084.852921086786 528.8262495711388 1087.2803956655162 528.0346817737268Q1089.6814846509992 527.2431139763148 1091.0799210930936 525.8974487207145Q1092.451971941941 524.5517834651141 1092.9796838068823 522.8367199040547Q1093.4810100785767 521.1216563429955 1093.4810100785767 519.1691224427126L1093.4810100785767 519.1691224427126L1093.4810100785767 464.2607028955681Q1093.4810100785767 457.03105034587196 1091.8187177040115 452.01778762892945Q1090.1564253294464 447.0045249119869 1087.3595524452573 444.07572406156254Q1084.5890651543154 441.1733088043853 1080.868696506479 440.2234274474909Q1077.1483278586427 439.2999316838436 1072.9794041256064 440.3289698204792L1072.9794041256064 440.3289698204792Q1067.227344797746 441.72740626257365 1063.0056498782153 445.2103045711864Q1058.7839549586847 448.6668172865521 1056.0662388542369 453.5481520372593Q1053.322137156542 458.4294867879665 1051.9237007144475 464.4454020482976Q1050.525264272353 470.4877029018757 1050.3405651196235 476.97855884065393L1050.3405651196235 476.97855884065393L1050.3405651196235 519.1691224427126Q1050.3405651196235 520.5675588848071 1050.8155057980707 522.2298512593723Q1051.264060883271 523.9185292271845 1052.6097261388713 525.3433512625261Q1053.9553913944717 526.7945588911147 1056.435637159696 527.7972114345032Q1058.889497331673 528.8262495711388 1062.9528786917213 528.8262495711388L1062.9528786917213 528.8262495711388ZM1200.6329042549119 428.5609952322877L1200.6329042549119 428.5609952322877Q1207.5723152788903 428.5609952322877 1213.3771457932448 430.0385884541234Q1219.1819763075994 431.5161816759591 1223.6675271596007 433.6534147289715Q1228.179463604849 435.7906477819838 1231.477662760732 438.1917367674668Q1234.7494763233685 440.6192113461969 1236.702010223651 442.5453596532327L1236.702010223651 442.5453596532327Q1239.5780398875816 440.3289698204792 1242.9290102299587 438.5083638864316Q1246.253594979089 436.71414354563115 1249.6837221012079 435.4212494765249Q1253.1138492233263 434.1019698141716 1256.517590752198 433.4159443897479Q1259.8949466878225 432.72991896532415 1262.9556755044819 432.54521981259467L1262.9556755044819 432.54521981259467L1264.0638704208586 435.6059486292543Q1260.3698873662695 437.08354185109005 1257.388315329351 440.43451219346747L1257.388315329351 440.43451219346747Q1254.8816839708797 443.31054185739765 1252.7444509178674 448.29741898109313Q1250.6336034581022 453.3106816980357 1250.4489043053727 461.3846732316379L1250.4489043053727 461.3846732316379Q1250.3433619323844 466.1076944228627 1250.3433619323844 471.22649951279357Q1250.3433619323844 476.31891900947727 1250.2905907458903 481.2794105399257Q1250.2642051526432 486.2399020703741 1250.2114339661491 490.7518385156224Q1250.158662779655 495.2373893676237 1250.1058915931608 498.7730588627305Q1250.0531204066667 502.2823427645903 1250.0531204066667 504.4723470040968Q1250.0531204066667 506.66235124360327 1250.0531204066667 507.0317495490622L1250.0531204066667 507.0317495490622Q1250.0531204066667 515.1057410826644 1252.163967866432 520.0926182063599Q1254.2484297329502 525.1058809233025 1256.8342178711628 527.9819105872327L1256.8342178711628 527.9819105872327Q1259.8949466878225 531.33288092961 1263.6944721153998 532.8104741514458L1263.6944721153998 532.8104741514458L1262.586277199023 535.8712029681053Q1258.0479551605276 535.686503815376 1252.8499932908558 534.2880673732814Q1247.6520314211837 532.9160165244341 1242.7443110772292 530.4093851659627Q1237.8102051400278 527.9027538074915 1233.6412814069915 524.4198554988786Q1229.4723576739552 520.936957190266 1226.8865695357426 516.4777919315118L1226.8865695357426 516.4777919315118Q1225.013192415201 520.0134614266187 1222.1371627512708 523.338046175749Q1219.2611330873406 526.6890165181264 1215.092209354304 529.2748046563388Q1210.9232856212677 531.8869783877984 1205.2503830731484 533.4964995758694Q1199.6038661182765 535.1324063571876 1192.268671195592 535.1324063571876L1192.268671195592 535.1324063571876Q1180.2104550816828 535.1324063571876 1171.081039818198 530.8315546579158Q1161.9516245547131 526.5043173653969 1155.8301669213938 519.5121351549244Q1149.7087092880745 512.4935673512049 1146.5952092849207 503.6807792066848Q1143.4817092817668 494.8679910621647 1143.4817092817668 485.8705037649152L1143.4817092817668 485.8705037649152Q1143.4817092817668 479.1157918936663 1145.1176160630848 472.22915205618204Q1146.727137251156 465.36889781194486 1149.919794034051 459.00996983940195Q1153.138836410193 452.6774274601061 1157.9146287879119 447.1100672849752Q1162.690421165631 441.54270710984423 1169.049349138174 437.40016897005484Q1175.3818915174697 433.2840164235125 1183.2711838983425 430.9093130312766Q1191.1604762792151 428.5609952322877 1200.6329042549119 428.5609952322877ZM1201.002302560371 525.3961224490201L1201.002302560371 525.3961224490201Q1207.493158499149 525.3961224490201 1211.7676246051738 522.4145504121018Q1216.0157051179515 519.4593639684304 1218.5751076629167 515.1848978624056Q1221.1345102078822 510.9104317563809 1222.3218619040003 506.1874105651561Q1223.5355991933652 501.4643893739313 1224.0105398718124 497.8495630990832L1224.0105398718124 497.8495630990832L1224.7493364827303 462.67756730074416Q1224.5646373300008 460.72503340046126 1224.0369254650595 457.9545461095193Q1223.5355991933652 455.1840588185774 1222.5065610567299 452.20248678165893Q1221.5039085133412 449.2473003379875 1219.868001732023 446.2129571145749Q1218.2584805439521 443.20499948440937 1215.7518491854808 440.88306727866757Q1213.2452178270096 438.56113507292577 1209.762319518397 437.08354185109005Q1206.2794212097842 435.6059486292543 1201.6355567983005 435.6059486292543L1201.6355567983005 435.6059486292543Q1194.696145774322 435.6059486292543 1189.0232432262028 439.11523253111415Q1183.3767262713307 442.650902026221 1179.3925016910239 448.7195884730462Q1175.3818915174697 454.7882749198714 1173.2182728712103 462.8622664534736Q1171.0282686317037 470.93625798707586 1171.0282686317037 480.0392876573136L1171.0282686317037 480.0392876573136Q1171.0282686317037 491.91280461849334 1173.5876711766691 500.43535123729566Q1176.1470737216346 508.98428344934507 1180.3423830479182 514.551643624476Q1184.5640779674486 520.0926182063599 1189.9467389898502 522.7575631243135Q1195.3294000122517 525.3961224490201 1201.002302560371 525.3961224490201ZM1275.304133144109 435.9753469347133L1275.304133144109 432.54521981259467L1316.0171035243318 432.54521981259467L1316.0171035243318 442.91475795869167Q1318.1543365773443 440.1442706677497 1320.845667088545 437.7431816822667Q1323.5369975997457 435.3157071035366 1326.7824255691346 433.5214867627361Q1330.027853538524 431.7008808286886 1333.9593069323366 430.671842692053Q1337.9171459193965 429.6691901486645 1342.5610103308802 429.6691901486645L1342.5610103308802 429.6691901486645Q1348.022828133023 429.6691901486645 1352.7458493242477 431.1467833705002Q1357.4952561087198 432.6243765923359 1361.2947815362973 435.2629359170425Q1365.0943069638745 437.9278808349962 1368.0494934075462 441.6218638895854Q1371.0310654444645 445.34223253742175 1372.9835993447475 449.8013977961759L1372.9835993447475 449.8013977961759Q1375.1208323977598 445.79078762262185 1378.023247654937 442.1495757545267Q1380.9520485053615 438.48197829318457 1384.751573932939 435.6851054089955Q1388.5510993605164 432.9146181180536 1393.3268917382354 431.2787113367355Q1398.1026841159544 429.6691901486645 1404.1449849695325 429.6691901486645L1404.1449849695325 429.6691901486645Q1412.5883748085937 429.6691901486645 1419.1320019338661 432.9937748977948Q1425.6756290591386 436.3447452401722 1430.1084087246456 442.1495757545267Q1434.5675739833998 447.92802067563423 1436.8367350026472 455.5798427172834Q1439.105896021895 463.23166475893254 1439.105896021895 471.85975375072314L1439.105896021895 471.85975375072314L1439.105896021895 519.723219900901Q1439.105896021895 521.1216563429955 1439.6336078868362 522.7047919378194Q1440.1349341585305 524.2879275326434 1441.5333706006252 525.6335927882437Q1442.9054214494724 526.9792580438441 1445.3328960282026 527.9027538074915Q1447.7339850136857 528.8262495711388 1451.6390528142513 528.8262495711388L1451.6390528142513 528.8262495711388L1451.6390528142513 532.2563766932574L1398.6831671673897 532.2563766932574L1398.6831671673897 528.8262495711388Q1402.2979934422378 528.8262495711388 1404.699082427721 528.1402241467151Q1407.100171413204 527.4278131290444 1408.5513790417924 526.2140758396793Q1409.9762010771342 525.0267241435613 1410.5830697218164 523.3908173622431Q1411.1899383664993 521.7812961741722 1411.1899383664993 519.9079190536304L1411.1899383664993 519.9079190536304L1411.1899383664993 466.1076944228627Q1411.1899383664993 458.98358424615486 1410.0817434501225 454.04947830895355Q1408.9735485337453 449.1417579649993 1407.0210146334628 446.0810291483396Q1405.0684807331797 443.02030033167995 1402.4826925949674 441.67463507607954Q1399.8705188635079 440.3289698204792 1396.9153324198362 440.3289698204792L1396.9153324198362 440.3289698204792Q1393.1158069922587 440.3289698204792 1389.632908683646 442.3606605005033Q1386.1500103750334 444.4187367737744 1383.4586798638327 448.8251308460345Q1380.767349352632 453.2315249182945 1379.1314425713138 460.03900797603757Q1377.521921383243 466.8464910337806 1377.521921383243 476.4244613824656L1377.521921383243 476.4244613824656L1377.521921383243 519.1691224427126Q1377.521921383243 520.5675588848071 1377.99686206169 522.2298512593723Q1378.44541714689 523.9185292271845 1379.7383112159964 525.3433512625261Q1381.0575908783496 526.7945588911147 1383.511451050327 527.7972114345032Q1385.965311222304 528.8262495711388 1390.0550781755994 528.8262495711388L1390.0550781755994 528.8262495711388L1390.0550781755994 532.2563766932574L1337.0728069354907 532.2563766932574L1337.0728069354907 528.8262495711388Q1340.6876332103386 528.8262495711388 1343.1151077890688 528.1402241467151Q1345.5161967745516 527.4278131290444 1346.9674044031403 526.2140758396793Q1348.3922264384819 525.0267241435613 1348.9990950831645 523.3908173622431Q1349.605963727847 521.7812961741722 1349.605963727847 519.9079190536304L1349.605963727847 519.9079190536304L1349.605963727847 466.1076944228627Q1349.605963727847 458.98358424615486 1348.4977688114702 454.04947830895355Q1347.3631883018463 449.1417579649993 1345.4634255880576 446.0810291483396Q1343.5636628742689 443.02030033167995 1340.9778747360563 441.67463507607954Q1338.3657010045968 440.3289698204792 1335.4105145609253 440.3289698204792L1335.4105145609253 440.3289698204792Q1331.690145913089 440.3289698204792 1328.2072476044764 442.3342749072562Q1324.7507348891106 444.3131944007862 1322.085789971157 448.5348893203167Q1319.4472306464506 452.7565842398473 1317.8377094583795 459.3529825516138Q1316.2018026770613 465.9229952701333 1316.2018026770613 475.1051817201123L1316.2018026770613 475.1051817201123L1316.2018026770613 520.8578004105248Q1316.2018026770613 522.2298512593723 1316.8086713217438 523.6282877014667Q1317.4155399664264 525.0267241435613 1318.8403620017677 526.1876902464321Q1320.2915696303564 527.3486563493032 1322.6398874293454 528.0874529602208Q1325.0145908215814 528.8262495711388 1328.550260316688 528.8262495711388L1328.550260316688 528.8262495711388L1328.550260316688 532.2563766932574L1275.304133144109 532.2563766932574L1275.304133144109 528.8262495711388Q1279.1828153514275 528.8262495711388 1281.6630611166518 528.0346817737268Q1284.1169212886289 527.2431139763148 1285.4889721374764 525.8974487207145Q1286.887408579571 524.5517834651141 1287.4151204445125 522.8367199040547Q1287.9164467162063 521.1216563429955 1287.9164467162063 519.1691224427126L1287.9164467162063 519.1691224427126L1287.9164467162063 445.60608846989237Q1287.9164467162063 444.23403762104493 1287.4415060377592 442.5453596532327Q1286.992950952559 440.88306727866757 1285.647285696959 439.45824524332596Q1284.3016204413584 438.0070376147374 1281.8477602693813 436.9779994781018Q1279.367514504157 435.9753469347133 1275.304133144109 435.9753469347133L1275.304133144109 435.9753469347133ZM1459.9769002803243 435.9753469347133L1459.9769002803243 432.54521981259467L1500.7162562537942 432.54521981259467L1500.7162562537942 442.91475795869167Q1502.8534893068065 440.1442706677497 1505.5448198180072 437.7431816822667Q1508.2097647359608 435.3157071035366 1511.4815782985972 433.5214867627361Q1514.7270062679863 431.7008808286886 1518.6584596617993 430.671842692053Q1522.589913055612 429.6691901486645 1527.2337774670957 429.6691901486645L1527.2337774670957 429.6691901486645Q1532.7219808624855 429.6691901486645 1537.4450020537104 431.1467833705002Q1542.168023244935 432.6243765923359 1545.9675486725125 435.2629359170425Q1549.76707410009 437.9278808349962 1552.7486461370083 441.6218638895854Q1555.70383258068 445.34223253742175 1557.6563664809628 449.8013977961759L1557.6563664809628 449.8013977961759Q1559.793599533975 445.79078762262185 1562.7224003843996 442.1495757545267Q1565.651201234824 438.48197829318457 1569.4507266624016 435.6851054089955Q1573.250252089979 432.9146181180536 1578.026044467698 431.2787113367355Q1582.801836845417 429.6691901486645 1588.844137698995 429.6691901486645L1588.844137698995 429.6691901486645Q1597.261141944809 429.6691901486645 1603.8047690700814 432.9937748977948Q1610.3483961953539 436.3447452401722 1614.807561454108 442.1495757545267Q1619.266726712862 447.92802067563423 1621.5358877321098 455.5798427172834Q1623.8050487513576 463.23166475893254 1623.8050487513576 471.85975375072314L1623.8050487513576 471.85975375072314L1623.8050487513576 519.723219900901Q1623.8050487513576 521.1216563429955 1624.3063750230517 522.7047919378194Q1624.834086887993 524.2879275326434 1626.2061377368404 525.6335927882437Q1627.6045741789349 526.9792580438441 1630.0056631644181 527.9027538074915Q1632.433137743148 528.8262495711388 1636.338205543714 528.8262495711388L1636.338205543714 528.8262495711388L1636.338205543714 532.2563766932574L1583.3559343036052 532.2563766932574L1583.3559343036052 528.8262495711388Q1586.970760578453 528.8262495711388 1589.3982351571833 528.1402241467151Q1591.7993241426664 527.4278131290444 1593.250531771255 526.2140758396793Q1594.6753538065966 525.0267241435613 1595.282222451279 523.3908173622431Q1595.8890910959615 521.7812961741722 1595.8890910959615 519.9079190536304L1595.8890910959615 519.9079190536304L1595.8890910959615 466.1076944228627Q1595.8890910959615 458.98358424615486 1594.7808961795847 454.04947830895355Q1593.6463156699608 449.1417579649993 1591.7201673629252 446.0810291483396Q1589.7676334626424 443.02030033167995 1587.1554597311826 441.67463507607954Q1584.5696715929703 440.3289698204792 1581.5880995560517 440.3289698204792L1581.5880995560517 440.3289698204792Q1577.7885741284742 440.3289698204792 1574.3056758198616 442.3606605005033Q1570.849163104496 444.4187367737744 1568.157832593295 448.8251308460345Q1565.4665020820944 453.2315249182945 1563.8305953007764 460.03900797603757Q1562.2210741127053 466.8464910337806 1562.2210741127053 476.4244613824656L1562.2210741127053 476.4244613824656L1562.2210741127053 519.1691224427126Q1562.2210741127053 520.5675588848071 1562.6696291979054 522.2298512593723Q1563.1445698763525 523.9185292271845 1564.4374639454588 525.3433512625261Q1565.7303580145651 526.7945588911147 1568.1842181865422 527.7972114345032Q1570.6380783585194 528.8262495711388 1574.7278453118147 528.8262495711388L1574.7278453118147 528.8262495711388L1574.7278453118147 532.2563766932574L1521.7719596649529 532.2563766932574L1521.7719596649529 528.8262495711388Q1525.3867859398008 528.8262495711388 1527.787874925284 528.1402241467151Q1530.215349504014 527.4278131290444 1531.6401715393556 526.2140758396793Q1533.0913791679443 525.0267241435613 1533.6718622193798 523.3908173622431Q1534.2787308640623 521.7812961741722 1534.2787308640623 519.9079190536304L1534.2787308640623 519.9079190536304L1534.2787308640623 466.1076944228627Q1534.2787308640623 458.98358424615486 1533.1705359476857 454.04947830895355Q1532.062341031309 449.1417579649993 1530.16257831752 446.0810291483396Q1528.2628156037313 443.02030033167995 1525.6506418722718 441.67463507607954Q1523.0648537340592 440.3289698204792 1520.0832816971408 440.3289698204792L1520.0832816971408 440.3289698204792Q1516.3892986425515 440.3289698204792 1512.9064003339388 442.3342749072562Q1509.4235020253261 444.3131944007862 1506.7849427006197 448.5348893203167Q1504.1463833759128 452.7565842398473 1502.5104765945948 459.3529825516138Q1500.9009554065237 465.9229952701333 1500.9009554065237 475.1051817201123L1500.9009554065237 475.1051817201123L1500.9009554065237 520.8578004105248Q1500.9009554065237 522.2298512593723 1501.5078240512064 523.6282877014667Q1502.0883071026417 525.0267241435613 1503.5395147312304 526.1876902464321Q1504.964336766572 527.3486563493032 1507.3390401588078 528.0874529602208Q1509.7137435510438 528.8262495711388 1513.2230274529036 528.8262495711388L1513.2230274529036 528.8262495711388L1513.2230274529036 532.2563766932574L1459.9769002803243 532.2563766932574L1459.9769002803243 528.8262495711388Q1463.88196808089 528.8262495711388 1466.3358282528673 528.0346817737268Q1468.7896884248441 527.2431139763148 1470.188124866939 525.8974487207145Q1471.5865613090334 524.5517834651141 1472.0878875807275 522.8367199040547Q1472.5892138524218 521.1216563429955 1472.5892138524218 519.1691224427126L1472.5892138524218 519.1691224427126L1472.5892138524218 445.60608846989237Q1472.5892138524218 444.23403762104493 1472.1406587672218 442.5453596532327Q1471.6657180887746 440.88306727866757 1470.320052833174 439.45824524332596Q1468.9743875775737 438.0070376147374 1466.5205274055968 436.9779994781018Q1464.0666672336197 435.9753469347133 1459.9769002803243 435.9753469347133L1459.9769002803243 435.9753469347133ZM1703.7533962899677 428.5609952322877L1703.7533962899677 428.5609952322877Q1710.719192907193 428.5609952322877 1716.5240234215473 430.0385884541234Q1722.328853935902 431.5161816759591 1726.8144047879034 433.6534147289715Q1731.3263412331519 435.7906477819838 1734.5981547957879 438.1917367674668Q1737.896353951671 440.6192113461969 1739.848887851954 442.5453596532327L1739.848887851954 442.5453596532327Q1742.7249175158843 440.3289698204792 1746.0758878582617 438.5083638864316Q1749.400472607392 436.71414354563115 1752.8305997295108 435.4212494765249Q1756.2607268516292 434.1019698141716 1759.6644683805005 433.4159443897479Q1763.041824316125 432.72991896532415 1766.1025531327848 432.54521981259467L1766.1025531327848 432.54521981259467L1767.2107480491616 435.6059486292543Q1763.490379401325 437.08354185109005 1760.5351929576539 440.43451219346747L1760.5351929576539 440.43451219346747Q1758.0285615991827 443.31054185739765 1755.8913285461701 448.29741898109313Q1753.754095493158 453.3106816980357 1753.5693963404285 461.3846732316379L1753.5693963404285 461.3846732316379Q1753.490239560687 466.1076944228627 1753.490239560687 471.22649951279357Q1753.490239560687 476.31891900947727 1753.4374683741928 481.2794105399257Q1753.384697187699 486.2399020703741 1753.3319260012047 490.7518385156224Q1753.3055404079576 495.2373893676237 1753.2527692214637 498.7730588627305Q1753.1999980349694 502.2823427645903 1753.1999980349694 504.4723470040968Q1753.1999980349694 506.66235124360327 1753.1999980349694 507.0317495490622L1753.1999980349694 507.0317495490622Q1753.1999980349694 515.1057410826644 1755.2844599014877 520.0926182063599Q1757.368921768006 525.1058809233025 1759.9810954994653 527.9819105872327L1759.9810954994653 527.9819105872327Q1763.041824316125 531.33288092961 1766.8413497437025 532.8104741514458L1766.8413497437025 532.8104741514458L1765.7331548273257 535.8712029681053Q1761.1948327888306 535.686503815376 1755.9968709191583 534.2880673732814Q1750.7989090494864 532.9160165244341 1745.864803112285 530.4093851659627Q1740.9570827683308 527.9027538074915 1736.7881590352943 524.4198554988786Q1732.6192353022582 520.936957190266 1730.0070615707984 516.4777919315118L1730.0070615707984 516.4777919315118Q1728.160070043504 520.0134614266187 1725.2840403795738 523.338046175749Q1722.4080107156435 526.6890165181264 1718.239086982607 529.2748046563388Q1714.0701632495704 531.8869783877984 1708.3972607014514 533.4964995758694Q1702.750743746579 535.1324063571876 1695.4155488238946 535.1324063571876L1695.4155488238946 535.1324063571876Q1683.3573327099855 535.1324063571876 1674.227917446501 530.8315546579158Q1665.0721165897687 526.5043173653969 1658.9506589564494 519.5121351549244Q1652.82920132313 512.4935673512049 1649.7420869132234 503.6807792066848Q1646.6285869100695 494.8679910621647 1646.6285869100695 485.8705037649152L1646.6285869100695 485.8705037649152Q1646.6285869100695 479.1157918936663 1648.2381080981406 472.22915205618204Q1649.8740148794589 465.36889781194486 1653.0666716623539 459.00996983940195Q1656.259328445249 452.6774274601061 1661.0351208229679 447.1100672849752Q1665.8372987939335 441.54270710984423 1672.1698411732293 437.40016897005484Q1678.5287691457725 433.2840164235125 1686.4180615266453 430.9093130312766Q1694.307353907518 428.5609952322877 1703.7533962899677 428.5609952322877ZM1704.1227945954265 525.3961224490201L1704.1227945954265 525.3961224490201Q1710.640036127452 525.3961224490201 1714.8881166402296 522.4145504121018Q1719.1625827462542 519.4593639684304 1721.7219852912197 515.1848978624056Q1724.255002242938 510.9104317563809 1725.4687395323028 506.1874105651561Q1726.6824768216682 501.4643893739313 1727.1310319068682 497.8495630990832L1727.1310319068682 497.8495630990832L1727.869828517786 462.67756730074416Q1727.6851293650564 460.72503340046126 1727.1838030933625 457.9545461095193Q1726.6824768216682 455.1840588185774 1725.6534386850324 452.20248678165893Q1724.624400548397 449.2473003379875 1723.014879360326 446.2129571145749Q1721.3789725790077 443.20499948440937 1718.8723412205366 440.88306727866757Q1716.392095455312 438.56113507292577 1712.9091971466999 437.08354185109005Q1709.4262988380867 435.6059486292543 1704.7824344266032 435.6059486292543L1704.7824344266032 435.6059486292543Q1697.8166378093777 435.6059486292543 1692.1701208545057 439.11523253111415Q1686.4972183063865 442.650902026221 1682.5129937260792 448.7195884730462Q1678.5287691457725 454.7882749198714 1676.365150499513 462.8622664534736Q1674.1751462600066 470.93625798707586 1674.1751462600066 480.0392876573136L1674.1751462600066 480.0392876573136Q1674.1751462600066 491.91280461849334 1676.734548804972 500.43535123729566Q1679.2675657566904 508.98428344934507 1683.489260676221 514.551643624476Q1687.7109555957516 520.0926182063599 1693.093616618153 522.7575631243135Q1698.4762776405544 525.3961224490201 1704.1227945954265 525.3961224490201ZM1865.0749134025293 532.2563766932574L1865.0749134025293 517.2165885424297Q1862.8585235697763 520.5675588848071 1859.613095600387 523.7602156677021Q1856.3676676309976 526.9792580438441 1851.9085023722434 529.5122749955624Q1847.4493371134893 532.0716775405278 1841.8028201586174 533.6020419488577Q1836.1299176104983 535.1324063571876 1828.9794218405434 535.1324063571876L1828.9794218405434 535.1324063571876Q1816.9212057266338 535.1324063571876 1807.7917904631493 530.8315546579158Q1798.6623751996642 526.5043173653969 1792.5409175663447 519.5121351549244Q1786.4194599330256 512.4935673512049 1783.3059599298715 503.6807792066848Q1780.1924599267184 494.8679910621647 1780.1924599267184 485.8705037649152L1780.1924599267184 485.8705037649152Q1780.1924599267184 479.1157918936663 1781.5381251823185 472.22915205618204Q1782.8837904379186 465.36889781194486 1785.6806633221079 459.00996983940195Q1788.4511506130495 452.6774274601061 1792.7256167190747 447.1100672849752Q1797.0000828250988 441.54270710984423 1802.9368413056889 437.40016897005484Q1808.8735997862789 433.2840164235125 1816.4726506414338 430.9093130312766Q1824.0717014965892 428.5609952322877 1833.5441294722857 428.5609952322877L1833.5441294722857 428.5609952322877Q1838.926790494687 428.5609952322877 1843.6498116859118 429.4317198094409Q1848.372832877137 430.30244438659406 1852.3306718641968 431.7536520151827Q1856.2621252580095 433.1784740505243 1859.4547820409045 434.99907998457184Q1862.6738244170467 436.79330032537234 1865.0749134025293 438.56113507292577L1865.0749134025293 438.56113507292577L1865.0749134025293 398.6661180833618Q1865.0749134025293 397.29406723451444 1864.5735871308354 395.65816045319633Q1864.045875265894 394.0486392651253 1862.6738244170467 392.70297400952495Q1861.2753879749519 391.35730875392454 1858.8742989894693 390.46019858352435Q1856.446824410739 389.5894740063712 1852.541756610173 389.5894740063712L1852.541756610173 389.5894740063712L1852.541756610173 385.9746477315231L1892.0673752942782 385.9746477315231L1892.0673752942782 519.723219900901Q1892.0673752942782 521.1216563429955 1892.5687015659726 522.7047919378194Q1893.0964134309136 524.2879275326434 1894.4948498730084 525.6335927882437Q1895.8669007218557 526.9792580438441 1898.320760893833 527.9027538074915Q1900.801006659057 528.8262495711388 1904.6005320866345 528.8262495711388L1904.6005320866345 528.8262495711388L1904.6005320866345 532.2563766932574L1865.0749134025293 532.2563766932574ZM1835.8660616780273 525.3961224490201L1835.8660616780273 525.3961224490201Q1841.8819769383588 525.3961224490201 1846.420298976854 523.1533470230195Q1850.9850066085962 520.936957190266 1854.2304345779855 517.6123724411357Q1857.4758625473744 514.2614020987583 1859.5603244138927 510.2244063319572Q1861.644786280411 506.1874105651561 1862.884909163023 502.51981310381393Q1864.1514176388825 498.8522156424717 1864.5999727240821 496.13449953802393Q1865.0749134025293 493.390397840329 1865.0749134025293 492.5460588564229L1865.0749134025293 492.5460588564229L1865.0749134025293 456.29225373495416L1857.924417632575 465.9229952701333Q1857.4758625473744 457.4796054310721 1854.9692311889032 450.8040503395644L1854.9692311889032 450.8040503395644Q1853.8610362725265 447.92802067563423 1852.1723583047144 445.2103045711864Q1850.510065930149 442.4662028734915 1848.0562057581722 440.3289698204792Q1845.6023455861948 438.1917367674668 1842.2513752438174 436.8988426983606Q1838.926790494687 435.6059486292543 1834.546782015674 435.6059486292543L1834.546782015674 435.6059486292543Q1827.6073709916957 435.6059486292543 1822.4885659017648 439.11523253111415Q1817.396146405081 442.650902026221 1814.1507184356922 448.7195884730462Q1810.9052904663029 454.7882749198714 1809.322154871479 462.8622664534736Q1807.739019276655 470.93625798707586 1807.739019276655 480.0392876573136L1807.739019276655 480.0392876573136Q1807.739019276655 491.91280461849334 1810.03456588915 500.43535123729566Q1812.3037269083973 508.98428344934507 1816.1032523359747 514.551643624476Q1819.9027777635526 520.0926182063599 1824.995197260236 522.7575631243135Q1830.1140023501669 525.3961224490201 1835.8660616780273 525.3961224490201Z " fill="D0F5BE" transform="matrix(0.45941391376612406,0,0,0.4594139137661241,0,88.22181121003841)"/></g></svg>